# xmcd
#
# Track frame offsets: 
#        150
#        12697
#        24717
#        38862
#        51837
#        65107
#        77965
#        91910
#        102727
#        117490
#        132242
#        147080
#        162940
#        175970
#        188937
#        201487
#        215910
#        227672
#        240940
#        253832
#        267392
#
# Disc length: 3749 seconds
#
# Revision: 0
# Processed by: cddbd v1.5.2PL0 Copyright (c) Steve Scherf et al.
# Submitted via: ExactAudioCopy v0.99pb3
#
DISCID=460ea315
DTITLE=Elmore James - Classic Early Recordings 1951-1956: Canton Crusa
DTITLE=de [CD1]
DYEAR=1993
DGENRE=Blues
TTITLE0=Dust My Broom
TTITLE1=Please Find My Baby (Version 1)
TTITLE2=Hawaiian Boogie
TTITLE3=Please Find My Baby (Version 2)
TTITLE4=Hand In Hand
TTITLE5=Long Tall Woman
TTITLE6=Rock My Baby Right
TTITLE7=One More Drink (Take 1)
TTITLE8=My Baby's Gone
TTITLE9=One More Drink (Take 2)
TTITLE10=Lost Woman Blues (aka Please Find My Baby) (Version 3)
TTITLE11=I Believe
TTITLE12=I Held My Baby Last Night
TTITLE13=Baby What's Wrong
TTITLE14=Sinful Woman
TTITLE15=Round House Boggie (aka Sax Symphonic Boggie)
TTITLE16=Dumb Woman Blues
TTITLE17=Sax-Only Boogie
TTITLE18=Kicking The Blues Around (aka Flaming Blues)
TTITLE19=I May Be Wrong
TTITLE20=Sweet Little Woman
EXTD=
EXTT0=
EXTT1=
EXTT2=
EXTT3=
EXTT4=
EXTT5=
EXTT6=
EXTT7=
EXTT8=
EXTT9=
EXTT10=
EXTT11=
EXTT12=
EXTT13=
EXTT14=
EXTT15=
EXTT16=
EXTT17=
EXTT18=
EXTT19=
EXTT20=
PLAYORDER=
